<?xml version="1.0" standalone="no"?><!DOCTYPE svg PUBLIC "-//W3C//DTD SVG 1.1//EN" "http://www.w3.org/Graphics/SVG/1.1/DTD/svg11.dtd"><svg t="1768664261460" class="icon" viewBox="0 0 1024 1024" version="1.1" xmlns="http://www.w3.org/2000/svg" p-id="5609" xmlns:xlink="http://www.w3.org/1999/xlink" width="200" height="200"><path d="M621.714286 0h-512A109.714286 109.714286 0 0 0 0 109.714286v512A109.714286 109.714286 0 0 0 109.714286 731.428571h91.721143V475.428571a45.714286 45.714286 0 1 1 91.428571 0v310.857143a46.08 46.08 0 0 1-0.292571 5.12v122.88A109.714286 109.714286 0 0 0 402.285714 1024h512a109.714286 109.714286 0 0 0 109.714286-109.714286v-512A109.714286 109.714286 0 0 0 914.285714 292.571429H731.428571V109.714286A109.714286 109.714286 0 0 0 621.714286 0z" fill="#000000" p-id="5610"></path></svg>